<?xml version="1.0" encoding="UTF-8"?>
<svg width="512" height="512" viewBox="0 0 512 512" fill="none" xmlns="http://www.w3.org/2000/svg">
  <!-- Safe zone background for maskable icon -->
  <rect width="512" height="512" fill="url(#gradient)" rx="102.4"/>
  
  <!-- Main icon content centered in safe zone -->
  <g transform="translate(102.4, 102.4) scale(0.6)">
    <!-- Sun -->
    <circle cx="120" cy="120" r="40" fill="#FFD700" opacity="0.9"/>
    <g stroke="#FFD700" stroke-width="6" stroke-linecap="round" opacity="0.8">
      <line x1="120" y1="50" x2="120" y2="70"/>
      <line x1="120" y1="170" x2="120" y2="190"/>
      <line x1="50" y1="120" x2="70" y2="120"/>
      <line x1="170" y1="120" x2="190" y2="120"/>
      <line x1="70.71" y1="70.71" x2="84.85" y2="84.85"/>
      <line x1="155.15" y1="155.15" x2="169.29" y2="169.29"/>
      <line x1="70.71" y1="169.29" x2="84.85" y2="155.15"/>
      <line x1="155.15" y1="84.85" x2="169.29" y2="70.71"/>
    </g>
    
    <!-- Cloud -->
    <path d="M250 160c-8.84 0-16-7.16-16-16s7.16-16 16-16c17.67 0 32 14.33 32 32s-14.33 32-32 32h-60c-11.05 0-20-8.95-20-20s8.95-20 20-20" 
          fill="#E0E7FF" opacity="0.9"/>
    <circle cx="270" cy="130" r="25" fill="#E0E7FF" opacity="0.9"/>
    <circle cx="230" cy="140" r="20" fill="#E0E7FF" opacity="0.9"/>
    
    <!-- Rain drops -->
    <g fill="#60A5FA" opacity="0.7">
      <ellipse cx="220" cy="200" rx="3" ry="8"/>
      <ellipse cx="240" cy="210" rx="3" ry="8"/>
      <ellipse cx="260" cy="200" rx="3" ry="8"/>
      <ellipse cx="280" cy="210" rx="3" ry="8"/>
    </g>
    
    <!-- Thermometer -->
    <g transform="translate(50, 200)">
      <rect x="0" y="0" width="8" height="80" fill="#DC2626" rx="4"/>
      <circle cx="4" cy="85" r="12" fill="#DC2626"/>
      <rect x="2" y="70" width="4" height="15" fill="#FFFFFF"/>
      <g stroke="#374151" stroke-width="1" opacity="0.6">
        <line x1="10" y1="10" x2="16" y2="10"/>
        <line x1="10" y1="20" x2="16" y2="20"/>
        <line x1="10" y1="30" x2="16" y2="30"/>
        <line x1="10" y1="40" x2="16" y2="40"/>
        <line x1="10" y1="50" x2="16" y2="50"/>
        <line x1="10" y1="60" x2="16" y2="60"/>
      </g>
    </g>
    
    <!-- Arabic text -->
    <text x="160" y="290" fill="#FFFFFF" font-family="Arial, sans-serif" font-size="24" font-weight="bold" text-anchor="middle">
      طقس العرب
    </text>
  </g>
  
  <defs>
    <linearGradient id="gradient" x1="0%" y1="0%" x2="100%" y2="100%">
      <stop offset="0%" style="stop-color:#9333EA;stop-opacity:1" />
      <stop offset="50%" style="stop-color:#7C3AED;stop-opacity:1" />
      <stop offset="100%" style="stop-color:#6D28D9;stop-opacity:1" />
    </linearGradient>
  </defs>
</svg>