<?xml version="1.0" encoding="UTF-8"?>
<svg width="512" height="512" viewBox="0 0 512 512" fill="none" xmlns="http://www.w3.org/2000/svg">
  <!-- Background -->
  <rect width="512" height="512" fill="url(#gradient)" rx="64"/>
  
  <!-- Sun -->
  <circle cx="150" cy="150" r="50" fill="#FFD700" opacity="0.9"/>
  <g stroke="#FFD700" stroke-width="8" stroke-linecap="round" opacity="0.8">
    <line x1="150" y1="60" x2="150" y2="85"/>
    <line x1="150" y1="215" x2="150" y2="240"/>
    <line x1="60" y1="150" x2="85" y2="150"/>
    <line x1="215" y1="150" x2="240" y2="150"/>
    <line x1="88.79" y1="88.79" x2="106.07" y2="106.07"/>
    <line x1="193.93" y1="193.93" x2="211.21" y2="211.21"/>
    <line x1="88.79" y1="211.21" x2="106.07" y2="193.93"/>
    <line x1="193.93" y1="106.07" x2="211.21" y2="88.79"/>
  </g>
  
  <!-- Cloud -->
  <path d="M320 200c-11.05 0-20-8.95-20-20s8.95-20 20-20c22.09 0 40 17.91 40 40s-17.91 40-40 40h-75c-13.81 0-25-11.19-25-25s11.19-25 25-25" 
        fill="#E0E7FF" opacity="0.9"/>
  <circle cx="345" cy="165" r="32" fill="#E0E7FF" opacity="0.9"/>
  <circle cx="300" cy="175" r="25" fill="#E0E7FF" opacity="0.9"/>
  
  <!-- Rain drops -->
  <g fill="#60A5FA" opacity="0.7">
    <ellipse cx="280" cy="250" rx="4" ry="12"/>
    <ellipse cx="305" cy="265" rx="4" ry="12"/>
    <ellipse cx="330" cy="250" rx="4" ry="12"/>
    <ellipse cx="355" cy="265" rx="4" ry="12"/>
    <ellipse cx="380" cy="250" rx="4" ry="12"/>
  </g>
  
  <!-- Thermometer -->
  <g transform="translate(80, 280)">
    <rect x="0" y="0" width="12" height="120" fill="#DC2626" rx="6"/>
    <circle cx="6" cy="128" r="18" fill="#DC2626"/>
    <rect x="3" y="105" width="6" height="23" fill="#FFFFFF"/>
    <g stroke="#374151" stroke-width="2" opacity="0.6">
      <line x1="15" y1="15" x2="25" y2="15"/>
      <line x1="15" y1="30" x2="25" y2="30"/>
      <line x1="15" y1="45" x2="25" y2="45"/>
      <line x1="15" y1="60" x2="25" y2="60"/>
      <line x1="15" y1="75" x2="25" y2="75"/>
      <line x1="15" y1="90" x2="25" y2="90"/>
    </g>
  </g>
  
  <!-- Arabic text -->
  <text x="256" y="380" fill="#FFFFFF" font-family="Arial, sans-serif" font-size="32" font-weight="bold" text-anchor="middle">
    طقس العرب المطور
  </text>
  
  <!-- English text -->
  <text x="256" y="420" fill="#E0E7FF" font-family="Arial, sans-serif" font-size="18" font-weight="500" text-anchor="middle">
    ArabWeather Pro
  </text>
  
  <defs>
    <linearGradient id="gradient" x1="0%" y1="0%" x2="100%" y2="100%">
      <stop offset="0%" style="stop-color:#9333EA;stop-opacity:1" />
      <stop offset="50%" style="stop-color:#7C3AED;stop-opacity:1" />
      <stop offset="100%" style="stop-color:#6D28D9;stop-opacity:1" />
    </linearGradient>
  </defs>
</svg>